<svg width="20" height="13" viewBox="0 0 20 13" fill="none" xmlns="http://www.w3.org/2000/svg">
<path d="M19.7547 1.8251C19.756 1.64936 19.7361 1.47413 19.6956 1.30313C19.6042 0.918845 19.3814 0.578595 19.0657 0.341212C18.75 0.103829 18.3611 -0.0158092 17.9666 0.00307697C15.2706 0.00307697 12.5746 0.00307697 9.87857 0.00307697C7.18257 0.00307697 4.49367 0.00307697 1.81167 0.00307697C1.57111 -0.0113902 1.33019 0.0252812 1.10477 0.110499C0.879336 0.195716 0.674405 0.327597 0.503569 0.497584C0.332733 0.66757 0.199773 0.871704 0.113432 1.0967C0.0270912 1.32171 -0.010675 1.56249 0.00259225 1.80313C0.00259225 4.68246 0.00259225 7.56142 0.00259225 10.4401C-0.00835796 10.6788 0.0308227 10.9172 0.117582 11.1398C0.204342 11.3624 0.336806 11.5645 0.506376 11.7328C0.675947 11.9012 0.878942 12.0321 1.1022 12.1172C1.32546 12.2024 1.56403 12.2398 1.80264 12.2271H17.9577C18.198 12.2397 18.4382 12.2016 18.6627 12.1151C18.8873 12.0287 19.0912 11.8958 19.261 11.7254C19.4308 11.5549 19.5628 11.3505 19.6483 11.1256C19.7339 10.9007 19.7711 10.6603 19.7576 10.4201C19.7583 7.5554 19.7573 4.69043 19.7547 1.8251ZM18.2757 8.85708C18.0011 8.79722 17.7161 8.80287 17.4441 8.87356C17.1721 8.94425 16.9206 9.07808 16.7099 9.26406C16.4991 9.45005 16.3352 9.68298 16.2312 9.94412C16.1273 10.2053 16.0863 10.4872 16.1116 10.7671H3.50064C3.43864 9.34311 2.73662 8.63416 1.48562 8.73916V3.50308C1.76032 3.54452 2.04096 3.52035 2.30447 3.4324C2.56799 3.34444 2.80688 3.19522 3.00162 2.9971C3.19623 2.79911 3.3414 2.55799 3.42532 2.29336C3.50925 2.02873 3.52959 1.7481 3.48465 1.47415H16.1676C16.0999 1.76366 16.1072 2.06567 16.1887 2.35159C16.2703 2.63751 16.4233 2.89781 16.6336 3.10806C16.844 3.32064 17.1056 3.47566 17.3931 3.55813C17.6806 3.64061 17.9845 3.64784 18.2757 3.57913V8.85708Z" fill="#2787BD"/>
<path d="M9.96659 9.86107H9.91659C9.42731 9.85583 8.94405 9.75251 8.4954 9.55721C8.04675 9.36191 7.64183 9.07862 7.30459 8.72407C6.79172 8.19582 6.44598 7.52806 6.31063 6.80434C6.17528 6.08061 6.25633 5.33304 6.54363 4.65513C6.83093 3.97723 7.31173 3.39908 7.92589 2.993C8.54006 2.58692 9.26032 2.37094 9.99659 2.37207H10.0476C11.0323 2.39468 11.9684 2.80428 12.6532 3.51217C13.338 4.22005 13.7164 5.16921 13.7064 6.15409C13.6964 7.13897 13.2989 8.08026 12.5998 8.7741C11.9008 9.46793 10.9565 9.85845 9.97159 9.86107H9.96659ZM10.4666 5.21607V8.43007H11.1886V7.34607C11.2535 7.42161 11.3343 7.48179 11.4253 7.52225C11.5162 7.56272 11.6151 7.58247 11.7146 7.58007C11.8423 7.58383 11.9689 7.55638 12.0836 7.50009C12.1983 7.4438 12.2975 7.36039 12.3726 7.25707C12.5457 7.00332 12.6311 6.69988 12.6156 6.39307V6.35907C12.6322 6.05131 12.5487 5.74644 12.3776 5.49007C12.3013 5.38757 12.2014 5.30509 12.0862 5.24971C11.9711 5.19432 11.8443 5.16768 11.7166 5.17207C11.6116 5.16934 11.5074 5.19126 11.4124 5.23606C11.3174 5.28087 11.2343 5.34732 11.1696 5.43007L11.1476 5.21607H10.4666ZM8.32059 6.43207H8.72759L9.27959 7.53707H10.0866V7.50507L9.43359 6.24407C9.60283 6.17134 9.74684 6.05029 9.84759 5.89607C9.94099 5.73187 9.9867 5.54485 9.97959 5.35607C9.98681 5.22292 9.96217 5.08996 9.90774 4.96823C9.85331 4.84649 9.77064 4.73948 9.66659 4.65607C9.41298 4.47829 9.1068 4.39126 8.79759 4.40907H7.56759V7.53707H8.32059V6.43707V6.43207ZM11.5426 7.02307C11.4719 7.02935 11.401 7.01432 11.339 6.97992C11.277 6.94552 11.2267 6.89333 11.1946 6.83007V5.91607C11.2262 5.85381 11.2761 5.80271 11.3376 5.76964C11.3991 5.73656 11.4692 5.72311 11.5386 5.73107C11.7776 5.73107 11.8986 5.93907 11.8986 6.34907V6.42607C11.8906 6.82207 11.7706 7.02307 11.5426 7.02307ZM8.79759 5.85307H8.32059V4.99307H8.79759C8.8563 4.9889 8.91524 4.99697 8.97067 5.01677C9.0261 5.03656 9.07681 5.06765 9.11959 5.10807C9.19614 5.19533 9.23529 5.3092 9.22859 5.42507C9.23536 5.54018 9.19657 5.65333 9.12059 5.74007C9.07736 5.78001 9.02638 5.81065 8.97082 5.83009C8.91526 5.84953 8.8563 5.85735 8.79759 5.85307Z" fill="#2787BD"/>
<path d="M4.54653 5.26508C4.40892 5.26507 4.2727 5.29231 4.14565 5.34515C4.01859 5.39799 3.90331 5.47536 3.80629 5.57294C3.70927 5.67052 3.63245 5.7864 3.58034 5.91376C3.52823 6.04111 3.50179 6.17752 3.50258 6.31512C3.50522 6.58937 3.61651 6.85131 3.81203 7.04364C4.00754 7.23597 4.2713 7.34299 4.54555 7.34113C4.68135 7.34153 4.81595 7.31493 4.94142 7.263C5.0669 7.21107 5.18072 7.13477 5.27651 7.03851C5.3723 6.94226 5.44808 6.82793 5.49941 6.70221C5.55073 6.57649 5.57664 6.44188 5.57558 6.30609C5.57637 6.17017 5.55033 6.03536 5.49904 5.90948C5.44776 5.78361 5.37218 5.66911 5.27663 5.57245C5.18108 5.47578 5.06743 5.39887 4.94216 5.34613C4.81688 5.29339 4.68244 5.26586 4.54653 5.26508Z" fill="#2787BD"/>
<path d="M15.4506 5.26605C15.1728 5.26764 14.907 5.3793 14.7113 5.57648C14.5156 5.77365 14.406 6.04027 14.4065 6.31805C14.411 6.59223 14.5234 6.85362 14.7195 7.04535C14.9155 7.23708 15.1793 7.34372 15.4535 7.3421C15.5893 7.34224 15.7239 7.31542 15.8492 7.26324C15.9746 7.21107 16.0884 7.13447 16.184 7.03802C16.2796 6.94158 16.355 6.82718 16.4061 6.70135C16.4572 6.57553 16.4829 6.44091 16.4816 6.30511C16.4821 6.03078 16.3739 5.76731 16.1807 5.57257C15.9874 5.37783 15.7249 5.26764 15.4506 5.26605Z" fill="#2787BD"/>
</svg>
