<svg width="20" height="13" viewBox="0 0 20 13" fill="none" xmlns="http://www.w3.org/2000/svg">
<path d="M19.7547 2.20803C19.756 2.0323 19.7361 1.85707 19.6956 1.68606C19.6042 1.30178 19.3814 0.961529 19.0657 0.724146C18.75 0.486763 18.3611 0.367125 17.9666 0.386012C15.2706 0.386012 12.5746 0.386012 9.87857 0.386012C7.18257 0.386012 4.49367 0.386012 1.81167 0.386012C1.57111 0.371544 1.33019 0.408216 1.10477 0.493433C0.879336 0.578651 0.674405 0.710532 0.503569 0.880518C0.332733 1.0505 0.199773 1.25464 0.113432 1.47964C0.0270912 1.70464 -0.010675 1.94543 0.00259225 2.18606C0.00259225 5.06539 0.00259225 7.94436 0.00259225 10.823C-0.00835796 11.0617 0.0308227 11.3001 0.117582 11.5227C0.204342 11.7454 0.336806 11.9474 0.506376 12.1157C0.675947 12.2841 0.878942 12.415 1.1022 12.5001C1.32546 12.5853 1.56403 12.6227 1.80264 12.61H17.9577C18.198 12.6226 18.4382 12.5845 18.6627 12.4981C18.8873 12.4116 19.0912 12.2788 19.261 12.1083C19.4308 11.9378 19.5628 11.7335 19.6483 11.5086C19.7339 11.2837 19.7711 11.0433 19.7576 10.803C19.7583 7.93834 19.7573 5.07337 19.7547 2.20803ZM18.2757 9.24002C18.0011 9.18015 17.7161 9.1858 17.4441 9.25649C17.1721 9.32718 16.9206 9.46101 16.7099 9.647C16.4991 9.83298 16.3352 10.0659 16.2312 10.3271C16.1273 10.5882 16.0863 10.8701 16.1116 11.15H3.50064C3.43864 9.72605 2.73662 9.0171 1.48562 9.1221V3.88601C1.76032 3.92745 2.04096 3.90329 2.30447 3.81533C2.56799 3.72738 2.80688 3.57816 3.00162 3.38003C3.19623 3.18204 3.3414 2.94093 3.42532 2.67629C3.50925 2.41166 3.52959 2.13104 3.48465 1.85708H16.1676C16.0999 2.14659 16.1072 2.4486 16.1887 2.73452C16.2703 3.02044 16.4233 3.28074 16.6336 3.49099C16.844 3.70358 17.1056 3.85859 17.3931 3.94107C17.6806 4.02354 17.9845 4.03078 18.2757 3.96206V9.24002Z" fill="#2787BD"/>
<path d="M10.0424 2.75805C9.05319 2.74439 8.09874 3.1228 7.38765 3.81066C6.67656 4.49852 6.26671 5.43991 6.24751 6.42907C6.22849 7.42187 6.60431 8.38164 7.29244 9.09753C7.98057 9.81341 8.92466 10.2268 9.91744 10.2471C10.4145 10.2581 10.9087 10.17 11.3713 9.98803C11.8339 9.80601 12.2557 9.53363 12.6119 9.18688C12.9681 8.84013 13.2518 8.42591 13.4462 7.96838C13.6407 7.51084 13.7421 7.01922 13.7445 6.52209C13.7495 5.53297 13.3631 4.58203 12.6695 3.87682C11.9759 3.17162 11.0315 2.76939 10.0424 2.75805ZM11.2714 7.60912C11.2217 7.77912 11.1313 7.93434 11.0079 8.06139C10.8845 8.18845 10.7319 8.28349 10.5634 8.33813C10.5192 8.34626 10.4771 8.36308 10.4395 8.38769C10.4019 8.41229 10.3696 8.44419 10.3444 8.48144C10.3193 8.51868 10.3019 8.56053 10.2932 8.60461C10.2844 8.64868 10.2844 8.694 10.2934 8.73803C10.3114 9.06603 10.2934 9.07104 9.96944 9.07104C9.64544 9.07104 9.62648 9.07111 9.63448 8.72411C9.63448 8.53811 9.57151 8.46805 9.39351 8.43505C9.18717 8.39575 8.9858 8.33332 8.79341 8.24901C8.73441 8.22301 8.71645 8.09913 8.68245 8.02013C8.68245 8.01013 8.68251 7.99312 8.69051 7.97912C8.80251 7.47912 8.79642 7.50005 9.27742 7.63305C9.53314 7.6955 9.79645 7.72114 10.0594 7.7091C10.1459 7.70813 10.229 7.67485 10.2923 7.61584C10.3556 7.55682 10.3945 7.47637 10.4014 7.39013C10.4119 7.30519 10.3941 7.21914 10.3507 7.14538C10.3073 7.07162 10.2408 7.01419 10.1615 6.98205C10.0205 6.90505 9.86751 6.8501 9.72151 6.7821C9.5347 6.70231 9.3535 6.60978 9.1794 6.50512C9.02317 6.40869 8.89549 6.27233 8.80953 6.1101C8.72357 5.94787 8.68244 5.76557 8.69039 5.58214C8.69833 5.39872 8.75514 5.22082 8.85481 5.06664C8.95449 4.91246 9.09341 4.78762 9.2574 4.70507C9.31074 4.67143 9.36824 4.6449 9.42842 4.62609C9.47006 4.6202 9.51009 4.60556 9.54573 4.58324C9.58138 4.56092 9.61185 4.53146 9.63533 4.49657C9.65881 4.46168 9.67471 4.42215 9.68196 4.38073C9.68922 4.33931 9.68767 4.29689 9.67745 4.25609C9.67045 4.16209 9.70844 3.98809 9.75044 3.98009C9.91589 3.95154 10.085 3.95154 10.2504 3.98009C10.2844 3.98509 10.3225 4.12702 10.3155 4.20202C10.2935 4.43602 10.3975 4.54004 10.6225 4.54504H10.6435C11.1805 4.65404 11.2575 4.81502 11.0145 5.30602C10.9565 5.42302 10.8855 5.39113 10.7895 5.36913C10.5331 5.30516 10.2729 5.25733 10.0105 5.22607C9.92544 5.21066 9.83781 5.22839 9.76546 5.27563C9.69311 5.32287 9.6415 5.39606 9.62142 5.48009C9.60318 5.56068 9.6158 5.64511 9.65669 5.71691C9.69759 5.78871 9.76387 5.84261 9.84249 5.86803C10.1235 6.01103 10.4195 6.12602 10.6975 6.27502C10.9356 6.39253 11.1242 6.59107 11.2293 6.83495C11.3345 7.07884 11.3495 7.35219 11.2714 7.60607V7.60912Z" fill="#2787BD"/>
<path d="M4.54665 5.64807C4.40904 5.64807 4.27283 5.67531 4.14577 5.72815C4.01871 5.78099 3.90344 5.85835 3.80641 5.95593C3.70939 6.05351 3.63257 6.1694 3.58046 6.29675C3.52835 6.42411 3.50191 6.56052 3.5027 6.69812C3.50534 6.97236 3.61664 7.23431 3.81215 7.42664C4.00767 7.61896 4.27142 7.72599 4.54567 7.72412C4.68147 7.72452 4.81607 7.69793 4.94155 7.646C5.06702 7.59406 5.18084 7.51776 5.27663 7.42151C5.37242 7.32525 5.4482 7.21093 5.49953 7.08521C5.55085 6.95948 5.57676 6.82488 5.5757 6.68909C5.57649 6.55317 5.55045 6.41835 5.49916 6.29248C5.44788 6.16661 5.3723 6.05211 5.27675 5.95544C5.1812 5.85878 5.06755 5.78187 4.94228 5.72913C4.81701 5.67639 4.68257 5.64886 4.54665 5.64807Z" fill="#2787BD"/>
<path d="M15.4506 5.64905C15.1728 5.65063 14.907 5.7623 14.7113 5.95947C14.5156 6.15665 14.406 6.42326 14.4065 6.70105C14.411 6.97523 14.5234 7.23661 14.7195 7.42834C14.9155 7.62008 15.1793 7.72671 15.4535 7.7251C15.5893 7.72524 15.7239 7.69842 15.8492 7.64624C15.9746 7.59406 16.0884 7.51746 16.184 7.42102C16.2796 7.32458 16.355 7.21017 16.4061 7.08435C16.4572 6.95853 16.4829 6.8239 16.4816 6.68811C16.4821 6.41377 16.3739 6.1503 16.1807 5.95557C15.9874 5.76083 15.7249 5.65063 15.4506 5.64905Z" fill="#2787BD"/>
</svg>
