<svg width="20" height="13" viewBox="0 0 20 13" fill="none" xmlns="http://www.w3.org/2000/svg">
<path d="M19.7547 2.20803C19.756 2.0323 19.7361 1.85707 19.6956 1.68606C19.6042 1.30178 19.3814 0.961529 19.0657 0.724146C18.75 0.486763 18.3611 0.367125 17.9666 0.386012C15.2706 0.386012 12.5746 0.386012 9.87857 0.386012C7.18257 0.386012 4.49367 0.386012 1.81167 0.386012C1.57111 0.371544 1.33019 0.408216 1.10477 0.493433C0.879336 0.578651 0.674405 0.710532 0.503569 0.880518C0.332733 1.0505 0.199773 1.25464 0.113432 1.47964C0.0270912 1.70464 -0.010675 1.94543 0.00259225 2.18606C0.00259225 5.06539 0.00259225 7.94436 0.00259225 10.823C-0.00835796 11.0617 0.0308227 11.3001 0.117582 11.5227C0.204342 11.7454 0.336806 11.9474 0.506376 12.1157C0.675947 12.2841 0.878942 12.415 1.1022 12.5001C1.32546 12.5853 1.56403 12.6227 1.80264 12.61H17.9577C18.198 12.6226 18.4382 12.5845 18.6627 12.4981C18.8873 12.4116 19.0912 12.2788 19.261 12.1083C19.4308 11.9378 19.5628 11.7335 19.6483 11.5086C19.7339 11.2837 19.7711 11.0433 19.7576 10.803C19.7583 7.93834 19.7573 5.07337 19.7547 2.20803ZM18.2757 9.24002C18.0011 9.18015 17.7161 9.1858 17.4441 9.25649C17.1721 9.32718 16.9206 9.46101 16.7099 9.647C16.4991 9.83298 16.3352 10.0659 16.2312 10.3271C16.1273 10.5882 16.0863 10.8701 16.1116 11.15H3.50064C3.43864 9.72605 2.73662 9.0171 1.48562 9.1221V3.88601C1.76032 3.92745 2.04096 3.90329 2.30447 3.81533C2.56799 3.72738 2.80688 3.57816 3.00162 3.38003C3.19623 3.18204 3.3414 2.94093 3.42532 2.67629C3.50925 2.41166 3.52959 2.13104 3.48465 1.85708H16.1676C16.0999 2.14659 16.1072 2.4486 16.1887 2.73452C16.2703 3.02044 16.4233 3.28074 16.6336 3.49099C16.844 3.70358 17.1056 3.85859 17.3931 3.94107C17.6806 4.02354 17.9845 4.03078 18.2757 3.96206V9.24002Z" fill="#2787BD"/>
<path d="M9.96659 10.244H9.91659C9.42731 10.2388 8.94405 10.1354 8.4954 9.94015C8.04675 9.74485 7.64183 9.46155 7.30459 9.10701C6.79172 8.57875 6.44598 7.911 6.31063 7.18727C6.17528 6.46354 6.25633 5.71598 6.54363 5.03807C6.83093 4.36016 7.31173 3.78201 7.92589 3.37593C8.54006 2.96985 9.26032 2.75388 9.99659 2.75501H10.0476C11.0323 2.77762 11.9684 3.18722 12.6532 3.8951C13.338 4.60298 13.7164 5.55215 13.7064 6.53703C13.6964 7.5219 13.2989 8.4632 12.5998 9.15703C11.9008 9.85087 10.9565 10.2414 9.97159 10.244H9.96659ZM8.41259 7.28901C8.45559 7.28901 8.47359 7.30201 8.48859 7.34601C8.61567 7.71838 8.85679 8.04128 9.17773 8.26888C9.49868 8.49649 9.88315 8.61724 10.2766 8.61401C10.3336 8.61401 10.3926 8.61401 10.4596 8.60701C10.766 8.58919 11.0626 8.49239 11.3206 8.32601C11.4816 8.21694 11.6232 8.08174 11.7396 7.92601L11.6736 7.85501L11.3176 7.42401L11.2266 7.50001L11.2126 7.51201C11.1426 7.57101 11.0736 7.62801 11.0026 7.68501C10.8011 7.84741 10.5494 7.93473 10.2906 7.93201C10.2058 7.93168 10.1211 7.92398 10.0376 7.90901C9.87561 7.87838 9.72336 7.80924 9.5937 7.70743C9.46404 7.60562 9.36077 7.47411 9.29259 7.32401C9.29259 7.32401 9.29259 7.32401 9.29259 7.31601C9.29274 7.31368 9.29274 7.31134 9.29259 7.30901H10.6476V6.79801H9.13959C9.11019 6.63573 9.10346 6.47014 9.11959 6.30601H10.6476V5.79501H9.24759C9.24778 5.79235 9.24778 5.78967 9.24759 5.78701C9.36169 5.53054 9.56095 5.32139 9.81159 5.19501C9.96478 5.1206 10.1333 5.08326 10.3036 5.08601C10.4383 5.08779 10.5723 5.10388 10.7036 5.13401C10.859 5.17932 11.0011 5.26168 11.1176 5.37401C11.1706 5.41801 11.2176 5.46601 11.2726 5.51501L11.3586 5.59601L11.5286 5.38301L11.7806 5.06701C11.4984 4.7205 11.0994 4.48899 10.6586 4.41601C10.6016 4.40601 10.5436 4.39901 10.4866 4.39301H10.4776L10.4076 4.38501H10.1476H10.1366L10.1036 4.39001C9.9218 4.40088 9.74352 4.44494 9.57759 4.52001C9.31014 4.63627 9.07081 4.80869 8.87584 5.02557C8.68087 5.24245 8.53482 5.49873 8.44759 5.77701C8.44539 5.78943 8.43839 5.80049 8.4281 5.80779C8.4178 5.81509 8.40505 5.81804 8.39259 5.81601H7.81359V6.28701H8.31959C8.31959 6.40801 8.32659 6.52701 8.32959 6.64801V6.66201V6.77901H7.80959V7.29001H8.40959L8.41259 7.28901Z" fill="#2787BD"/>
<path d="M4.54665 5.64807C4.40904 5.64807 4.27283 5.67531 4.14577 5.72815C4.01871 5.78099 3.90344 5.85835 3.80641 5.95593C3.70939 6.05351 3.63257 6.1694 3.58046 6.29675C3.52835 6.42411 3.50191 6.56052 3.5027 6.69812C3.50534 6.97236 3.61664 7.23431 3.81215 7.42664C4.00767 7.61896 4.27142 7.72599 4.54567 7.72412C4.68147 7.72452 4.81607 7.69793 4.94155 7.646C5.06702 7.59406 5.18084 7.51776 5.27663 7.42151C5.37242 7.32525 5.4482 7.21093 5.49953 7.08521C5.55085 6.95948 5.57676 6.82488 5.5757 6.68909C5.57649 6.55317 5.55045 6.41835 5.49916 6.29248C5.44788 6.16661 5.3723 6.05211 5.27675 5.95544C5.1812 5.85878 5.06755 5.78187 4.94228 5.72913C4.81701 5.67639 4.68257 5.64886 4.54665 5.64807Z" fill="#2787BD"/>
<path d="M15.4506 5.64905C15.1728 5.65063 14.907 5.7623 14.7113 5.95947C14.5156 6.15665 14.406 6.42326 14.4065 6.70105C14.411 6.97523 14.5234 7.23661 14.7195 7.42834C14.9155 7.62008 15.1793 7.72671 15.4535 7.7251C15.5893 7.72524 15.7239 7.69842 15.8492 7.64624C15.9746 7.59406 16.0884 7.51746 16.184 7.42102C16.2796 7.32458 16.355 7.21017 16.4061 7.08435C16.4572 6.95853 16.4829 6.8239 16.4816 6.68811C16.4821 6.41377 16.3739 6.1503 16.1807 5.95557C15.9874 5.76083 15.7249 5.65063 15.4506 5.64905Z" fill="#2787BD"/>
</svg>
