<svg width="20" height="13" viewBox="0 0 20 13" fill="none" xmlns="http://www.w3.org/2000/svg">
<path d="M19.7547 2.20803C19.756 2.0323 19.7361 1.85707 19.6956 1.68606C19.6042 1.30178 19.3814 0.961529 19.0657 0.724146C18.75 0.486763 18.3611 0.367125 17.9666 0.386012C15.2706 0.386012 12.5746 0.386012 9.87857 0.386012C7.18257 0.386012 4.49367 0.386012 1.81167 0.386012C1.57111 0.371544 1.33019 0.408216 1.10477 0.493433C0.879336 0.578651 0.674405 0.710532 0.503569 0.880518C0.332733 1.0505 0.199773 1.25464 0.113432 1.47964C0.0270912 1.70464 -0.010675 1.94543 0.00259225 2.18606C0.00259225 5.06539 0.00259225 7.94436 0.00259225 10.823C-0.00835796 11.0617 0.0308227 11.3001 0.117582 11.5227C0.204342 11.7454 0.336806 11.9474 0.506376 12.1157C0.675947 12.2841 0.878942 12.415 1.1022 12.5001C1.32546 12.5853 1.56403 12.6227 1.80264 12.61H17.9577C18.198 12.6226 18.4382 12.5845 18.6627 12.4981C18.8873 12.4116 19.0912 12.2788 19.261 12.1083C19.4308 11.9378 19.5628 11.7335 19.6483 11.5086C19.7339 11.2837 19.7711 11.0433 19.7576 10.803C19.7583 7.93834 19.7573 5.07337 19.7547 2.20803ZM18.2757 9.24002C18.0011 9.18015 17.7161 9.1858 17.4441 9.25649C17.1721 9.32718 16.9206 9.46101 16.7099 9.647C16.4991 9.83298 16.3352 10.0659 16.2312 10.3271C16.1273 10.5882 16.0863 10.8701 16.1116 11.15H3.50064C3.43864 9.72605 2.73662 9.0171 1.48562 9.1221V3.88601C1.76032 3.92745 2.04096 3.90329 2.30447 3.81533C2.56799 3.72738 2.80688 3.57816 3.00162 3.38003C3.19623 3.18204 3.3414 2.94093 3.42532 2.67629C3.50925 2.41166 3.52959 2.13104 3.48465 1.85708H16.1676C16.0999 2.14659 16.1072 2.4486 16.1887 2.73452C16.2703 3.02044 16.4233 3.28074 16.6336 3.49099C16.844 3.70358 17.1056 3.85859 17.3931 3.94107C17.6806 4.02354 17.9845 4.03078 18.2757 3.96206V9.24002Z" fill="#2787BD"/>
<path d="M9.96462 10.244H9.91662C9.42714 10.2385 8.94373 10.135 8.49493 9.93951C8.04614 9.74405 7.64106 9.46065 7.30362 9.10603C6.79074 8.57777 6.44501 7.91002 6.30966 7.18629C6.17431 6.46257 6.25535 5.715 6.54265 5.03709C6.82995 4.35918 7.31075 3.78104 7.92492 3.37496C8.53908 2.96888 9.25935 2.7529 9.99562 2.75403H10.0466C10.5384 2.75942 11.0243 2.86162 11.4766 3.05479C11.929 3.24797 12.3388 3.52835 12.6827 3.87991C13.0267 4.23147 13.298 4.64734 13.4812 5.10376C13.6645 5.56019 13.756 6.04823 13.7506 6.54003C13.7452 7.03183 13.643 7.51776 13.4499 7.97006C13.2567 8.42237 12.9763 8.83219 12.6247 9.17614C12.2732 9.52009 11.8573 9.79142 11.4009 9.97465C10.9445 10.1579 10.4564 10.2494 9.96462 10.244ZM10.0786 7.54403C9.94362 7.54403 9.91962 7.65103 9.84862 7.96703C9.84891 7.97236 9.84891 7.9777 9.84862 7.98303C9.84534 7.99242 9.84534 8.00264 9.84862 8.01203C9.85862 8.03603 9.86762 8.06403 9.87662 8.09103C9.89662 8.15603 9.91762 8.22303 9.95962 8.24103C10.1521 8.32481 10.3534 8.38686 10.5596 8.42603C10.7446 8.46003 10.8056 8.53203 10.8006 8.71503C10.7956 8.89803 10.8006 8.97403 10.8406 9.01503C10.8806 9.05603 10.9736 9.06003 11.1356 9.06003C11.2976 9.06003 11.3866 9.06003 11.4286 9.01403C11.4706 8.96803 11.4686 8.89003 11.4606 8.72703C11.4516 8.68307 11.4515 8.63777 11.4602 8.59375C11.4689 8.54973 11.4862 8.50788 11.5113 8.47065C11.5363 8.43342 11.5685 8.40154 11.606 8.37689C11.6435 8.35223 11.6855 8.33528 11.7296 8.32703C11.8978 8.2721 12.0501 8.17701 12.1733 8.04999C12.2965 7.92297 12.3869 7.76784 12.4366 7.59803C12.5155 7.34343 12.5011 7.06908 12.3961 6.8241C12.2911 6.57912 12.1024 6.37952 11.8636 6.26103C11.7126 6.18003 11.5536 6.10803 11.3996 6.03903C11.2686 5.98003 11.1356 5.92003 11.0086 5.85503C10.8206 5.75503 10.7466 5.62903 10.7876 5.46703C10.8048 5.39064 10.8487 5.3229 10.9114 5.27597C10.9741 5.22905 11.0515 5.20602 11.1296 5.21103H11.1776C11.437 5.24558 11.6938 5.29668 11.9466 5.36403L11.9756 5.37103C12.0033 5.37892 12.0318 5.38362 12.0606 5.38503C12.1086 5.38503 12.1436 5.35903 12.1726 5.30103C12.3006 5.04203 12.3316 4.88503 12.2786 4.77603C12.2256 4.66703 12.0786 4.59703 11.8016 4.53903H11.7916H11.7786C11.7336 4.54286 11.6884 4.53728 11.6457 4.52265C11.603 4.50801 11.5638 4.48465 11.5306 4.45403C11.5037 4.4181 11.4847 4.37693 11.4747 4.33318C11.4647 4.28943 11.464 4.24407 11.4726 4.20003C11.4786 4.12503 11.4416 3.98203 11.4076 3.97803C11.3154 3.96276 11.2221 3.95474 11.1286 3.95403C11.0555 3.95354 10.9825 3.9599 10.9106 3.97303C10.8656 3.98203 10.8296 4.16003 10.8366 4.25003C10.8468 4.29082 10.8484 4.33331 10.8411 4.37473C10.8339 4.41616 10.818 4.45559 10.7945 4.49048C10.771 4.52537 10.7405 4.55493 10.7048 4.57725C10.6692 4.59957 10.6293 4.61415 10.5876 4.62003C10.5338 4.63606 10.4823 4.65927 10.4346 4.68903L10.4166 4.69903C10.2532 4.78502 10.1147 4.91178 10.0147 5.06701C9.91466 5.22223 9.85642 5.40068 9.84562 5.58503C9.84047 5.76764 9.88329 5.9484 9.96979 6.1093C10.0563 6.2702 10.1835 6.40561 10.3386 6.50203C10.4662 6.58282 10.5999 6.65338 10.7386 6.71303L10.8796 6.77903C10.9386 6.80803 11.0006 6.83403 11.0606 6.86003C11.1476 6.89703 11.2356 6.93503 11.3186 6.98003C11.3983 7.01193 11.4652 7.06942 11.5086 7.14347C11.552 7.21751 11.5696 7.3039 11.5586 7.38903C11.5519 7.47535 11.513 7.55601 11.4497 7.61506C11.3864 7.67412 11.3032 7.7073 11.2166 7.70803H11.1166C10.8878 7.71316 10.6593 7.68692 10.4376 7.63003L10.3876 7.61603C10.2876 7.5812 10.1839 7.55805 10.0786 7.54703V7.54403ZM7.51062 6.98303C7.51049 7.1669 7.55293 7.34831 7.63462 7.51303C7.7119 7.67534 7.83184 7.8136 7.98162 7.91303C8.13184 8.01142 8.30806 8.06261 8.48762 8.06003C8.61599 8.0646 8.74393 8.04272 8.86349 7.99575C8.98305 7.94879 9.09167 7.87775 9.18262 7.78703C9.27189 7.69278 9.34128 7.58152 9.38663 7.45989C9.43199 7.33825 9.45239 7.20872 9.44662 7.07903C9.46154 6.8988 9.42182 6.71825 9.33263 6.56093C9.24344 6.4036 9.10893 6.27679 8.94662 6.19703C8.83522 6.14411 8.71902 6.10192 8.59962 6.07103C8.49512 6.04878 8.39721 6.00257 8.31362 5.93603C8.284 5.90924 8.2606 5.87629 8.24505 5.83949C8.2295 5.8027 8.22219 5.76295 8.22362 5.72303C8.22075 5.64467 8.24713 5.56803 8.29762 5.50803C8.31925 5.48086 8.34679 5.45899 8.37816 5.44408C8.40953 5.42918 8.44389 5.42164 8.47862 5.42203C8.66462 5.42203 8.75862 5.55003 8.75862 5.80303H9.44762C9.46207 5.52935 9.36956 5.26076 9.18962 5.05403C9.09972 4.9598 8.99083 4.88575 8.87015 4.83678C8.74947 4.78782 8.61976 4.76507 8.48962 4.77003C8.36604 4.76601 8.24309 4.78928 8.12953 4.8382C8.01597 4.88711 7.91459 4.96046 7.83262 5.05303C7.66158 5.25265 7.57197 5.50934 7.58162 5.77203C7.57876 5.92195 7.60844 6.0707 7.66862 6.20803C7.72731 6.33465 7.81501 6.44565 7.92462 6.53203C8.05186 6.62864 8.1955 6.70147 8.34862 6.74703C8.47322 6.77909 8.59131 6.83255 8.69762 6.90503C8.7272 6.92914 8.75087 6.95969 8.76682 6.99436C8.78276 7.02903 8.79056 7.06688 8.78962 7.10503C8.79283 7.18216 8.76796 7.25784 8.71962 7.31803C8.69273 7.34649 8.65985 7.36861 8.62335 7.3828C8.58686 7.39698 8.54767 7.40287 8.50862 7.40003C8.46215 7.40158 8.41585 7.3935 8.37266 7.37629C8.32946 7.35908 8.29029 7.33312 8.25762 7.30003C8.18565 7.20951 8.15 7.09542 8.15762 6.98003H7.51062V6.98303Z" fill="#2787BD"/>
<path d="M4.54665 5.64807C4.40904 5.64807 4.27283 5.67531 4.14577 5.72815C4.01871 5.78099 3.90344 5.85835 3.80641 5.95593C3.70939 6.05351 3.63257 6.1694 3.58046 6.29675C3.52835 6.42411 3.50191 6.56052 3.5027 6.69812C3.50534 6.97236 3.61664 7.23431 3.81215 7.42664C4.00767 7.61896 4.27142 7.72599 4.54567 7.72412C4.68147 7.72452 4.81607 7.69793 4.94155 7.646C5.06702 7.59406 5.18084 7.51776 5.27663 7.42151C5.37242 7.32525 5.4482 7.21093 5.49953 7.08521C5.55085 6.95948 5.57676 6.82488 5.5757 6.68909C5.57649 6.55317 5.55045 6.41835 5.49916 6.29248C5.44788 6.16661 5.3723 6.05211 5.27675 5.95544C5.1812 5.85878 5.06755 5.78187 4.94228 5.72913C4.81701 5.67639 4.68257 5.64886 4.54665 5.64807Z" fill="#2787BD"/>
<path d="M15.4506 5.64905C15.1728 5.65063 14.907 5.7623 14.7113 5.95947C14.5156 6.15665 14.406 6.42326 14.4065 6.70105C14.411 6.97523 14.5234 7.23661 14.7195 7.42834C14.9155 7.62008 15.1793 7.72671 15.4535 7.7251C15.5893 7.72524 15.7239 7.69842 15.8492 7.64624C15.9746 7.59406 16.0884 7.51746 16.184 7.42102C16.2796 7.32458 16.355 7.21017 16.4061 7.08435C16.4572 6.95853 16.4829 6.8239 16.4816 6.68811C16.4821 6.41377 16.3739 6.1503 16.1807 5.95557C15.9874 5.76083 15.7249 5.65063 15.4506 5.64905Z" fill="#2787BD"/>
</svg>
