<svg width="47" height="158" viewBox="0 0 47 158" fill="none" xmlns="http://www.w3.org/2000/svg">
<g filter="url(#filter0_d_0_1)">
<path d="M13 71.7032C13 68.6849 14.0169 65.7903 15.8269 63.6561C17.6369 61.5219 20.0919 60.3229 22.6516 60.3229H22.8867C25.3014 60.2844 27.6072 59.1328 29.3107 57.1147C31.0143 55.0966 31.9801 52.3723 32.0014 49.5251V97.6781H22.6516C20.0919 97.6781 17.6369 96.4791 15.8269 94.3449C14.0169 92.2107 13 89.3161 13 86.2978V71.7032ZM22.8867 97.6771L32.0014 97.6781V108.475C31.9798 105.628 31.0139 102.904 29.3105 100.886C27.607 98.8681 25.3012 97.7156 22.8867 97.6771ZM32.0014 0L309.945 0V158L32.0014 158V0Z" fill="#C1DDED"/>
</g>
<path d="M28.9995 87.0007C26.6134 86.9978 24.3259 86.0461 22.6387 84.3544C20.9516 82.6627 20.0026 80.3691 20 77.9768C20.4987 66.0058 37.5073 66.0098 38 77.9768C37.9974 80.3693 37.0482 82.663 35.3609 84.3548C33.6735 86.0465 31.3858 86.9981 28.9995 87.0007ZM28.9995 70.6647C27.066 70.6671 25.2124 71.4383 23.8452 72.809C22.478 74.1798 21.7089 76.0382 21.7065 77.9768C22.1055 87.6768 35.8945 87.6768 36.2935 77.9768C36.2911 76.038 35.5218 74.1794 34.1544 72.8087C32.787 71.4379 30.9332 70.6669 28.9995 70.6647ZM32.7537 77.9768C32.7537 78.2035 32.6639 78.421 32.5039 78.5813C32.344 78.7417 32.1271 78.8317 31.9009 78.8317H29.9809V80.7557C29.9809 80.9826 29.891 81.2002 29.731 81.3607C29.571 81.5211 29.354 81.6112 29.1277 81.6112C28.9014 81.6112 28.6843 81.5211 28.5243 81.3607C28.3643 81.2002 28.2744 80.9826 28.2744 80.7557V78.8328H26.3554C26.1291 78.8328 25.9121 78.7426 25.7521 78.5822C25.592 78.4217 25.5021 78.2041 25.5021 77.9773C25.5021 77.7504 25.592 77.5328 25.7521 77.3723C25.9121 77.2119 26.1291 77.1217 26.3554 77.1217H28.2744V75.1977C28.2744 74.9709 28.3643 74.7533 28.5243 74.5928C28.6843 74.4324 28.9014 74.3422 29.1277 74.3422C29.354 74.3422 29.571 74.4324 29.731 74.5928C29.891 74.7533 29.9809 74.9709 29.9809 75.1977V77.1217H31.8999C32.012 77.1216 32.123 77.1436 32.2266 77.1865C32.3302 77.2295 32.4243 77.2924 32.5036 77.3718C32.5829 77.4512 32.6458 77.5455 32.6887 77.6493C32.7316 77.7531 32.7537 77.8644 32.7537 77.9768Z" fill="#2787BD"/>
<defs>
<filter id="filter0_d_0_1" x="0" y="-10" width="316.945" height="178" filterUnits="userSpaceOnUse" color-interpolation-filters="sRGB">
<feFlood flood-opacity="0" result="BackgroundImageFix"/>
<feColorMatrix in="SourceAlpha" type="matrix" values="0 0 0 0 0 0 0 0 0 0 0 0 0 0 0 0 0 0 127 0" result="hardAlpha"/>
<feOffset dx="-3"/>
<feGaussianBlur stdDeviation="5"/>
<feComposite in2="hardAlpha" operator="out"/>
<feColorMatrix type="matrix" values="0 0 0 0 0 0 0 0 0 0 0 0 0 0 0 0 0 0 0.25 0"/>
<feBlend mode="normal" in2="BackgroundImageFix" result="effect1_dropShadow_0_1"/>
<feBlend mode="normal" in="SourceGraphic" in2="effect1_dropShadow_0_1" result="shape"/>
</filter>
</defs>
</svg>
